:FULLY-SPECIFIED
:FORCE-ALL-JOINTS-BE-3DOF
:DEGREES
2650
root -1.48281 15.2617 -28.6428 1252.63 -73.1428 -176.629
lfemur -52.7753 24.7759 -10.8524
ltibia 59.9037 0 0
lfoot 8.0499 9.80632 0
ltoes -23.2664 0 0
rfemur -34.6319 -16.2855 23.9511
rtibia 67.7876 0 0
rfoot -23.615 -5.14456 0
rtoes -5.88254 0 0
lowerback 19.0401 4.58167 -0.251026
upperback -0.0796164 5.99835 0.584774
thorax -10.8704 2.82812 -0.873224
lowerneck -2.42779 9.75264 -0.351632
upperneck 4.72148 12.9878 0.722482
head 1.79629 6.48229 0.565266
lclavicle -6.55035e-015 -9.77087e-015 0
lhumerus 67.2362 -30.504 37.937
lradius 108.102 0 0
lwrist -31.3728 0 0
lhand -37.932 387.226 0
lfingers 7.12502 0 0
lthumb -10.974 -663.073 0
rclavicle -6.55035e-015 -9.77087e-015 0
rhumerus 5.6175 75.9259 -70.8319
rradius 102.11 0 0
rwrist -37.1158 0 0
rhand 1.84759 -391.874 0
rfingers 7.12502 0 0
rthumb 27.3669 299.989 0
2651
root -1.60798 15.2469 -28.6148 1254.41 -72.4947 -178.574
lfemur -52.2164 25.112 -10.4578
ltibia 58.6804 0 0
lfoot 8.83885 9.80346 0
ltoes -21.6363 0 0
rfemur -34.248 -16.2224 23.6317
rtibia 67.9663 0 0
rfoot -23.8473 -5.38882 0
rtoes -6.05499 0 0
lowerback 18.9229 4.69356 -0.0724085
upperback -0.108966 6.1809 0.547816
thorax -10.814 2.90634 -1.05019
lowerneck -2.4137 9.87236 -0.162916
upperneck 4.90052 13.1418 0.640492
head 1.86927 6.55981 0.521397
lclavicle -8.64389e-015 -9.63399e-015 0
lhumerus 63.9259 -28.7674 39.9883
lradius 108.01 0 0
lwrist -31.9676 0 0
lhand -38.2056 387.022 0
lfingers 7.12502 0 0
lthumb -11.2379 -663.291 0
rclavicle -8.64389e-015 -9.63399e-015 0
rhumerus 3.25016 75.526 -72.2186
rradius 103.041 0 0
rwrist -39.968 0 0
rhand 2.04672 -391.455 0
rfingers 7.12502 0 0
rthumb 27.559 300.418 0
2652
root -1.73314 15.2321 -28.5867 1255.73 -71.7707 -180.078
lfemur -51.5168 25.4627 -10.0068
ltibia 57.459 0 0
lfoot 9.64479 9.83193 0
ltoes -19.8053 0 0
rfemur -33.8637 -16.1969 23.2887
rtibia 68.1634 0 0
rfoot -24.073 -5.68944 0
rtoes -6.2384 0 0
lowerback 18.7867 4.79998 0.114493
upperback -0.14398 6.35888 0.517629
thorax -10.7505 2.98265 -1.22133
lowerneck -2.4029 9.97763 0.0345094
upperneck 5.09256 13.276 0.565958
head 1.94873 6.62769 0.479201
lclavicle -1.07152e-014 -9.40944e-015 0
lhumerus 60.3255 -26.9507 42.2227
lradius 107.97 0 0
lwrist -32.3266 0 0
lhand -38.4686 386.873 0
lfingers 7.12502 0 0
lthumb -11.4915 -663.453 0
rclavicle -1.07152e-014 -9.40944e-015 0
rhumerus 0.599871 74.9301 -73.7426
rradius 103.996 0 0
rwrist -42.9009 0 0
rhand 2.15673 -390.978 0
rfingers 7.12502 0 0
rthumb 27.6653 300.898 0
2653
root -1.85831 15.2173 -28.5587 1256.65 -70.9828 -181.18
lfemur -50.6975 25.8264 -9.50794
ltibia 56.2472 0 0
lfoot 10.4597 9.88627 0
ltoes -17.808 0 0
rfemur -33.4812 -16.2052 22.9266
rtibia 68.3774 0 0
rfoot -24.2928 -6.04052 0
rtoes -6.43177 0 0
lowerback 18.6342 4.90109 0.307721
upperback -0.184213 6.53209 0.493814
thorax -10.6813 3.05698 -1.38622
lowerneck -2.39517 10.0695 0.238806
upperneck 5.29525 13.3918 0.498582
head 2.03357 6.68663 0.438738
lclavicle -1.27479e-014 -9.10859e-015 0
lhumerus 56.4811 -25.0684 44.612
lradius 107.974 0 0
lwrist -32.4725 0 0
lhand -38.7209 386.774 0
lfingers 7.12502 0 0
lthumb -11.7347 -663.565 0
rclavicle -1.27479e-014 -9.10859e-015 0
rhumerus -2.29335 74.161 -75.3843
rradius 104.968 0 0
rwrist -45.8942 0 0
rhand 2.18749 -390.455 0
rfingers 7.12502 0 0
rthumb 27.6953 301.419 0
2654
root -1.98347 15.2024 -28.5306 1257.2 -70.1429 -181.92
lfemur -49.7794 26.2015 -8.96957
ltibia 55.0528 0 0
lfoot 11.2757 9.96099 0
ltoes -15.6791 0 0
rfemur -33.1024 -16.2435 22.5497
rtibia 68.6071 0 0
rfoot -24.5072 -6.43615 0
rtoes -6.6341 0 0
lowerback 18.468 4.99709 0.505316
upperback -0.229219 6.70028 0.475976
thorax -10.6079 3.12922 -1.54441
lowerneck -2.39031 10.1488 0.448133
upperneck 5.50623 13.4905 0.438069
head 2.1227 6.73729 0.40007
lclavicle -1.4726e-014 -8.74284e-015 0
lhumerus 52.4389 -23.1352 47.1281
lradius 108.016 0 0
lwrist -32.4275 0 0
lhand -38.9624 386.721 0
lfingers 7.12502 0 0
lthumb -11.9676 -663.631 0
rclavicle -1.4726e-014 -8.74284e-015 0
rhumerus -5.38949 73.2418 -77.1238
rradius 105.951 0 0
rwrist -48.9276 0 0
rhand 2.14887 -389.892 0
rfingers 7.12502 0 0
rthumb 27.6585 301.973 0
2655
root -2.10864 15.1876 -28.5026 1257.43 -69.2628 -182.337
lfemur -48.7832 26.5864 -8.40019
ltibia 53.8833 0 0
lfoot 12.0846 10.0506 0
ltoes -13.4533 0 0
rfemur -32.7295 -16.3081 22.1625
rtibia 68.8511 0 0
rfoot -24.7171 -6.87043 0
rtoes -6.84438 0 0
lowerback 18.2905 5.08814 0.70532
upperback -0.27855 6.86325 0.463716
thorax -10.5318 3.1993 -1.69548
lowerneck -2.3881 10.2168 0.660652
upperneck 5.72316 13.5737 0.384124
head 2.21505 6.78035 0.363255
lclavicle -1.66331e-014 -8.32356e-015 0
lhumerus 48.2449 -21.1656 49.7428
lradius 108.088 0 0
lwrist -32.2143 0 0
lhand -39.1932 386.709 0
lfingers 7.12502 0 0
lthumb -12.1902 -663.657 0
rclavicle -1.66331e-014 -8.32356e-015 0
rhumerus -8.64854 72.1952 -78.9415
rradius 106.936 0 0
rwrist -51.9811 0 0
rhand 2.05075 -389.3 0
rfingers 7.12502 0 0
rthumb 27.5644 302.554 0
